<?xml version="1.0" encoding="UTF-8"?>
<svg width="13px" height="13px" viewBox="0 0 13 13" version="1.1" xmlns="http://www.w3.org/2000/svg" xmlns:xlink="http://www.w3.org/1999/xlink">
    <!-- Generator: Sketch 43.2 (39069) - http://www.bohemiancoding.com/sketch -->
    <title>ic-ca-logo</title>
    <desc>Created with Sketch.</desc>
    <defs></defs>
    <g id="Page-1" stroke="none" stroke-width="1" fill="none" fill-rule="evenodd">
        <g id="ic-ca-logo">
            <path d="M9.776,3.888 L9.744,3.888 L8.944,8.016 L10.576,8.016 L9.776,3.888 Z M9.088,0.608 L10.448,0.608 L12.992,12 L11.36,12 L10.88,9.552 L8.656,9.552 L8.176,12 L6.544,12 L9.088,0.608 Z" id="ca" fill="#913D88"></path>
            <path d="M5.952,9.456 C5.952,9.80800176 5.885334,10.1439984 5.752,10.464 C5.618666,10.7840016 5.43466784,11.0639988 5.2,11.304 C4.96533216,11.5440012 4.69066824,11.7359993 4.376,11.88 C4.06133176,12.0240007 3.72266848,12.096 3.36,12.096 C3.05066512,12.096 2.7360016,12.0533338 2.416,11.968 C2.0959984,11.8826662 1.80800128,11.736001 1.552,11.528 C1.29599872,11.319999 1.08533416,11.045335 0.92,10.704 C0.75466584,10.362665 0.672,9.93066928 0.672,9.408 L0.672,3.136 C0.672,2.7626648 0.73599936,2.4160016 0.864,2.096 C0.99200064,1.7759984 1.17333216,1.49866784 1.408,1.264 C1.64266784,1.02933216 1.92266504,0.845334 2.248,0.712 C2.57333496,0.578666 2.93333136,0.512 3.328,0.512 C3.7013352,0.512 4.0479984,0.578666 4.368,0.712 C4.6880016,0.845334 4.96533216,1.0319988 5.2,1.272 C5.43466784,1.5120012 5.618666,1.79999832 5.752,2.136 C5.885334,2.47200168 5.952,2.83733136 5.952,3.232 L5.952,3.872 L4.32,3.872 L4.32,3.328 C4.32,3.0079984 4.22933424,2.73066784 4.048,2.496 C3.86666576,2.26133216 3.62133488,2.144 3.312,2.144 C2.90666464,2.144 2.637334,2.26933208 2.504,2.52 C2.370666,2.77066792 2.304,3.08799808 2.304,3.472 L2.304,9.296 C2.304,9.62666832 2.37599928,9.90399888 2.52,10.128 C2.66400072,10.3520011 2.9226648,10.464 3.296,10.464 C3.4026672,10.464 3.51733272,10.4453335 3.64,10.408 C3.76266728,10.3706665 3.87466616,10.3093338 3.976,10.224 C4.07733384,10.1386662 4.15999968,10.0213341 4.224,9.872 C4.28800032,9.72266592 4.32,9.53600112 4.32,9.312 L4.32,8.752 L5.952,8.752 L5.952,9.456 Z" id="Path" fill="#F64747"></path>
        </g>
    </g>
</svg>