<?xml version="1.0" encoding="UTF-8"?>
<svg width="105px" height="13px" viewBox="0 0 105 13" version="1.1" xmlns="http://www.w3.org/2000/svg" xmlns:xlink="http://www.w3.org/1999/xlink">
    <!-- Generator: Sketch 43.2 (39069) - http://www.bohemiancoding.com/sketch -->
    <title>logo</title>
    <desc>Created with Sketch.</desc>
    <defs></defs>
    <g id="Page-1" stroke="none" stroke-width="1" fill="none" fill-rule="evenodd">
        <g id="logo">
            <path d="M5.952,9.456 C5.952,9.80800176 5.885334,10.1439984 5.752,10.464 C5.618666,10.7840016 5.43466784,11.0639988 5.2,11.304 C4.96533216,11.5440012 4.69066824,11.7359993 4.376,11.88 C4.06133176,12.0240007 3.72266848,12.096 3.36,12.096 C3.05066512,12.096 2.7360016,12.0533338 2.416,11.968 C2.0959984,11.8826662 1.80800128,11.736001 1.552,11.528 C1.29599872,11.319999 1.08533416,11.045335 0.92,10.704 C0.75466584,10.362665 0.672,9.93066928 0.672,9.408 L0.672,3.136 C0.672,2.7626648 0.73599936,2.4160016 0.864,2.096 C0.99200064,1.7759984 1.17333216,1.49866784 1.408,1.264 C1.64266784,1.02933216 1.92266504,0.845334 2.248,0.712 C2.57333496,0.578666 2.93333136,0.512 3.328,0.512 C3.7013352,0.512 4.0479984,0.578666 4.368,0.712 C4.6880016,0.845334 4.96533216,1.0319988 5.2,1.272 C5.43466784,1.5120012 5.618666,1.79999832 5.752,2.136 C5.885334,2.47200168 5.952,2.83733136 5.952,3.232 L5.952,3.872 L4.32,3.872 L4.32,3.328 C4.32,3.0079984 4.22933424,2.73066784 4.048,2.496 C3.86666576,2.26133216 3.62133488,2.144 3.312,2.144 C2.90666464,2.144 2.637334,2.26933208 2.504,2.52 C2.370666,2.77066792 2.304,3.08799808 2.304,3.472 L2.304,9.296 C2.304,9.62666832 2.37599928,9.90399888 2.52,10.128 C2.66400072,10.3520011 2.9226648,10.464 3.296,10.464 C3.4026672,10.464 3.51733272,10.4453335 3.64,10.408 C3.76266728,10.3706665 3.87466616,10.3093338 3.976,10.224 C4.07733384,10.1386662 4.15999968,10.0213341 4.224,9.872 C4.28800032,9.72266592 4.32,9.53600112 4.32,9.312 L4.32,8.752 L5.952,8.752 L5.952,9.456 Z M7.184,3.296 C7.184,2.83733104 7.2639992,2.43200176 7.424,2.08 C7.5840008,1.72799824 7.79466536,1.43733448 8.056,1.208 C8.31733464,0.97866552 8.61066504,0.80533392 8.936,0.688 C9.26133496,0.57066608 9.58933168,0.512 9.92,0.512 C10.2506683,0.512 10.578665,0.57066608 10.904,0.688 C11.229335,0.80533392 11.5226654,0.97866552 11.784,1.208 C12.0453346,1.43733448 12.2559992,1.72799824 12.416,2.08 C12.5760008,2.43200176 12.656,2.83733104 12.656,3.296 L12.656,9.312 C12.656,9.78133568 12.5760008,10.1893316 12.416,10.536 C12.2559992,10.8826684 12.0453346,11.1706655 11.784,11.4 C11.5226654,11.6293345 11.229335,11.8026661 10.904,11.92 C10.578665,12.0373339 10.2506683,12.096 9.92,12.096 C9.58933168,12.096 9.26133496,12.0373339 8.936,11.92 C8.61066504,11.8026661 8.31733464,11.6293345 8.056,11.4 C7.79466536,11.1706655 7.5840008,10.8826684 7.424,10.536 C7.2639992,10.1893316 7.184,9.78133568 7.184,9.312 L7.184,3.296 Z M8.816,9.312 C8.816,9.70666864 8.92533224,9.9973324 9.144,10.184 C9.36266776,10.3706676 9.62133184,10.464 9.92,10.464 C10.2186682,10.464 10.4773322,10.3706676 10.696,10.184 C10.9146678,9.9973324 11.024,9.70666864 11.024,9.312 L11.024,3.296 C11.024,2.90133136 10.9146678,2.6106676 10.696,2.424 C10.4773322,2.2373324 10.2186682,2.144 9.92,2.144 C9.62133184,2.144 9.36266776,2.2373324 9.144,2.424 C8.92533224,2.6106676 8.816,2.90133136 8.816,3.296 L8.816,9.312 Z M14.096,0.608 L15.664,0.608 L17.76,6.64 L17.792,6.64 L19.872,0.608 L21.456,0.608 L21.456,12 L19.824,12 L19.824,5.072 L19.792,5.072 L18.176,9.968 L17.36,9.968 L15.76,5.072 L15.728,5.072 L15.728,12 L14.096,12 L14.096,0.608 Z M22.992,0.608 L25.376,0.608 C25.8986693,0.608 26.3439982,0.6879992 26.712,0.848 C27.0800018,1.0080008 27.3813322,1.221332 27.616,1.488 C27.8506678,1.754668 28.0186662,2.0613316 28.12,2.408 C28.2213338,2.7546684 28.272,3.1146648 28.272,3.488 L28.272,3.904 C28.272,4.21333488 28.2480002,4.4746656 28.2,4.688 C28.1519998,4.9013344 28.0800005,5.0879992 27.984,5.248 C27.8879995,5.4080008 27.7706674,5.54933272 27.632,5.672 C27.4933326,5.79466728 27.3333342,5.9093328 27.152,6.016 C27.5360019,6.19733424 27.8186658,6.46666488 28,6.824 C28.1813342,7.18133512 28.272,7.65866368 28.272,8.256 L28.272,8.896 C28.272,9.89867168 28.0293358,10.666664 27.544,11.2 C27.0586642,11.733336 26.282672,12 25.216,12 L22.992,12 L22.992,0.608 Z M24.624,10.368 L25.328,10.368 C25.6586683,10.368 25.9173324,10.3200005 26.104,10.224 C26.2906676,10.1279995 26.4319995,9.99466752 26.528,9.824 C26.6240005,9.65333248 26.6826666,9.45066784 26.704,9.216 C26.7253334,8.98133216 26.736,8.72533472 26.736,8.448 C26.736,8.15999856 26.7200002,7.9093344 26.688,7.696 C26.6559998,7.4826656 26.5893338,7.30400072 26.488,7.16 C26.3866662,7.01599928 26.2453342,6.90666704 26.064,6.832 C25.8826658,6.75733296 25.6426682,6.72 25.344,6.72 L24.624,6.72 L24.624,10.368 Z M24.624,5.28 L25.36,5.28 C25.9040027,5.28 26.2693324,5.14400136 26.456,4.872 C26.6426676,4.59999864 26.736,4.20266928 26.736,3.68 C26.736,3.16799744 26.632001,2.78400128 26.424,2.528 C26.215999,2.27199872 25.8400027,2.144 25.296,2.144 L24.624,2.144 L24.624,5.28 Z M29.808,0.608 L31.44,0.608 L31.44,10.368 L34.672,10.368 L34.672,12 L29.808,12 L29.808,0.608 Z M35.728,0.608 L40.592,0.608 L40.592,2.144 L37.36,2.144 L37.36,5.488 L40.176,5.488 L40.176,7.024 L37.36,7.024 L37.36,10.368 L40.592,10.368 L40.592,12 L35.728,12 L35.728,0.608 Z M46.928,3.888 L45.296,3.888 L45.296,3.52 C45.296,3.1466648 45.2080009,2.82400136 45.032,2.552 C44.8559991,2.27999864 44.5600021,2.144 44.144,2.144 C43.9199989,2.144 43.7360007,2.18666624 43.592,2.272 C43.4479993,2.35733376 43.3360004,2.466666 43.256,2.6 C43.1759996,2.733334 43.1200002,2.88799912 43.088,3.064 C43.0559998,3.24000088 43.04,3.42399904 43.04,3.616 C43.04,3.84000112 43.0479999,4.02933256 43.064,4.184 C43.0800001,4.33866744 43.1199997,4.47199944 43.184,4.584 C43.2480003,4.69600056 43.3413327,4.79466624 43.464,4.88 C43.5866673,4.96533376 43.7546656,5.05066624 43.968,5.136 L45.216,5.632 C45.5786685,5.77066736 45.8719989,5.9333324 46.096,6.12 C46.3200011,6.3066676 46.4933327,6.52533208 46.616,6.776 C46.7386673,7.02666792 46.8213331,7.31466504 46.864,7.64 C46.9066669,7.96533496 46.928,8.33599792 46.928,8.752 C46.928,9.2320024 46.8800005,9.67733128 46.784,10.088 C46.6879995,10.4986687 46.5306678,10.8506652 46.312,11.144 C46.0933322,11.4373348 45.8026685,11.6693325 45.44,11.84 C45.0773315,12.0106675 44.6346693,12.096 44.112,12.096 C43.7173314,12.096 43.349335,12.0266674 43.008,11.888 C42.666665,11.7493326 42.3733346,11.5600012 42.128,11.32 C41.8826654,11.0799988 41.6880007,10.7946683 41.544,10.464 C41.3999993,10.1333317 41.328,9.77600192 41.328,9.392 L41.328,8.784 L42.96,8.784 L42.96,9.296 C42.96,9.59466816 43.0479991,9.8639988 43.224,10.104 C43.4000009,10.3440012 43.6959979,10.464 44.112,10.464 C44.3893347,10.464 44.6053326,10.4240004 44.76,10.344 C44.9146674,10.2639996 45.0319996,10.1520007 45.112,10.008 C45.1920004,9.86399928 45.2426666,9.6853344 45.264,9.472 C45.2853334,9.2586656 45.296,9.02400128 45.296,8.768 C45.296,8.46933184 45.2853334,8.22400096 45.264,8.032 C45.2426666,7.83999904 45.1973337,7.68533392 45.128,7.568 C45.0586663,7.45066608 44.9626673,7.35466704 44.84,7.28 C44.7173327,7.20533296 44.5546677,7.12533376 44.352,7.04 L43.184,6.56 C42.4799965,6.27199856 42.0080012,5.89066904 41.768,5.416 C41.5279988,4.94133096 41.408,4.34667024 41.408,3.632 C41.408,3.2053312 41.4666661,2.80000192 41.584,2.416 C41.7013339,2.03199808 41.8746655,1.70133472 42.104,1.424 C42.3333345,1.14666528 42.6239982,0.92533416 42.976,0.76 C43.3280018,0.59466584 43.7386643,0.512 44.208,0.512 C44.6133354,0.512 44.9839983,0.58666592 45.32,0.736 C45.6560017,0.88533408 45.9439988,1.08266544 46.184,1.328 C46.4240012,1.57333456 46.6079994,1.84799848 46.736,2.152 C46.8640006,2.45600152 46.928,2.7679984 46.928,3.088 L46.928,3.888 Z M53.424,3.888 L51.792,3.888 L51.792,3.52 C51.792,3.1466648 51.7040009,2.82400136 51.528,2.552 C51.3519991,2.27999864 51.0560021,2.144 50.64,2.144 C50.4159989,2.144 50.2320007,2.18666624 50.088,2.272 C49.9439993,2.35733376 49.8320004,2.466666 49.752,2.6 C49.6719996,2.733334 49.6160002,2.88799912 49.584,3.064 C49.5519998,3.24000088 49.536,3.42399904 49.536,3.616 C49.536,3.84000112 49.5439999,4.02933256 49.56,4.184 C49.5760001,4.33866744 49.6159997,4.47199944 49.68,4.584 C49.7440003,4.69600056 49.8373327,4.79466624 49.96,4.88 C50.0826673,4.96533376 50.2506656,5.05066624 50.464,5.136 L51.712,5.632 C52.0746685,5.77066736 52.3679989,5.9333324 52.592,6.12 C52.8160011,6.3066676 52.9893327,6.52533208 53.112,6.776 C53.2346673,7.02666792 53.3173331,7.31466504 53.36,7.64 C53.4026669,7.96533496 53.424,8.33599792 53.424,8.752 C53.424,9.2320024 53.3760005,9.67733128 53.28,10.088 C53.1839995,10.4986687 53.0266678,10.8506652 52.808,11.144 C52.5893322,11.4373348 52.2986685,11.6693325 51.936,11.84 C51.5733315,12.0106675 51.1306693,12.096 50.608,12.096 C50.2133314,12.096 49.845335,12.0266674 49.504,11.888 C49.162665,11.7493326 48.8693346,11.5600012 48.624,11.32 C48.3786654,11.0799988 48.1840007,10.7946683 48.04,10.464 C47.8959993,10.1333317 47.824,9.77600192 47.824,9.392 L47.824,8.784 L49.456,8.784 L49.456,9.296 C49.456,9.59466816 49.5439991,9.8639988 49.72,10.104 C49.8960009,10.3440012 50.1919979,10.464 50.608,10.464 C50.8853347,10.464 51.1013326,10.4240004 51.256,10.344 C51.4106674,10.2639996 51.5279996,10.1520007 51.608,10.008 C51.6880004,9.86399928 51.7386666,9.6853344 51.76,9.472 C51.7813334,9.2586656 51.792,9.02400128 51.792,8.768 C51.792,8.46933184 51.7813334,8.22400096 51.76,8.032 C51.7386666,7.83999904 51.6933337,7.68533392 51.624,7.568 C51.5546663,7.45066608 51.4586673,7.35466704 51.336,7.28 C51.2133327,7.20533296 51.0506677,7.12533376 50.848,7.04 L49.68,6.56 C48.9759965,6.27199856 48.5040012,5.89066904 48.264,5.416 C48.0239988,4.94133096 47.904,4.34667024 47.904,3.632 C47.904,3.2053312 47.9626661,2.80000192 48.08,2.416 C48.1973339,2.03199808 48.3706655,1.70133472 48.6,1.424 C48.8293345,1.14666528 49.1199982,0.92533416 49.472,0.76 C49.8240018,0.59466584 50.2346643,0.512 50.704,0.512 C51.1093354,0.512 51.4799983,0.58666592 51.816,0.736 C52.1520017,0.88533408 52.4399988,1.08266544 52.68,1.328 C52.9200012,1.57333456 53.1039994,1.84799848 53.232,2.152 C53.3600006,2.45600152 53.424,2.7679984 53.424,3.088 L53.424,3.888 Z" id="combless" fill="#F64747"></path>
            <path d="M60.264,3.888 L60.232,3.888 L59.432,8.016 L61.064,8.016 L60.264,3.888 Z M59.576,0.608 L60.936,0.608 L63.48,12 L61.848,12 L61.368,9.552 L59.144,9.552 L58.664,12 L57.032,12 L59.576,0.608 Z M69.464,9.456 C69.464,9.80800176 69.397334,10.1439984 69.264,10.464 C69.130666,10.7840016 68.9466678,11.0639988 68.712,11.304 C68.4773322,11.5440012 68.2026682,11.7359993 67.888,11.88 C67.5733318,12.0240007 67.2346685,12.096 66.872,12.096 C66.5626651,12.096 66.2480016,12.0533338 65.928,11.968 C65.6079984,11.8826662 65.3200013,11.736001 65.064,11.528 C64.8079987,11.319999 64.5973342,11.045335 64.432,10.704 C64.2666658,10.362665 64.184,9.93066928 64.184,9.408 L64.184,3.136 C64.184,2.7626648 64.2479994,2.4160016 64.376,2.096 C64.5040006,1.7759984 64.6853322,1.49866784 64.92,1.264 C65.1546678,1.02933216 65.434665,0.845334 65.76,0.712 C66.085335,0.578666 66.4453314,0.512 66.84,0.512 C67.2133352,0.512 67.5599984,0.578666 67.88,0.712 C68.2000016,0.845334 68.4773322,1.0319988 68.712,1.272 C68.9466678,1.5120012 69.130666,1.79999832 69.264,2.136 C69.397334,2.47200168 69.464,2.83733136 69.464,3.232 L69.464,3.872 L67.832,3.872 L67.832,3.328 C67.832,3.0079984 67.7413342,2.73066784 67.56,2.496 C67.3786658,2.26133216 67.1333349,2.144 66.824,2.144 C66.4186646,2.144 66.149334,2.26933208 66.016,2.52 C65.882666,2.77066792 65.816,3.08799808 65.816,3.472 L65.816,9.296 C65.816,9.62666832 65.8879993,9.90399888 66.032,10.128 C66.1760007,10.3520011 66.4346648,10.464 66.808,10.464 C66.9146672,10.464 67.0293327,10.4453335 67.152,10.408 C67.2746673,10.3706665 67.3866662,10.3093338 67.488,10.224 C67.5893338,10.1386662 67.6719997,10.0213341 67.736,9.872 C67.8000003,9.72266592 67.832,9.53600112 67.832,9.312 L67.832,8.752 L69.464,8.752 L69.464,9.456 Z M73.288,3.888 L73.256,3.888 L72.456,8.016 L74.088,8.016 L73.288,3.888 Z M72.6,0.608 L73.96,0.608 L76.504,12 L74.872,12 L74.392,9.552 L72.168,9.552 L71.688,12 L70.056,12 L72.6,0.608 Z M77.304,0.608 L79.72,0.608 C80.6480046,0.608 81.3573309,0.86666408 81.848,1.384 C82.3386691,1.90133592 82.584,2.62399536 82.584,3.552 L82.584,8.88 C82.584,9.946672 82.3253359,10.7333308 81.808,11.24 C81.2906641,11.7466692 80.5466715,12 79.576,12 L77.304,12 L77.304,0.608 Z M78.936,10.464 L79.688,10.464 C80.146669,10.464 80.471999,10.3493345 80.664,10.12 C80.856001,9.89066552 80.952,9.53066912 80.952,9.04 L80.952,3.552 C80.952,3.10399776 80.8613342,2.75733456 80.68,2.512 C80.4986658,2.26666544 80.1680024,2.144 79.688,2.144 L78.936,2.144 L78.936,10.464 Z M84.12,0.608 L88.984,0.608 L88.984,2.144 L85.752,2.144 L85.752,5.488 L88.568,5.488 L88.568,7.024 L85.752,7.024 L85.752,10.368 L88.984,10.368 L88.984,12 L84.12,12 L84.12,0.608 Z M90.04,0.608 L91.608,0.608 L93.704,6.64 L93.736,6.64 L95.816,0.608 L97.4,0.608 L97.4,12 L95.768,12 L95.768,5.072 L95.736,5.072 L94.12,9.968 L93.304,9.968 L91.704,5.072 L91.672,5.072 L91.672,12 L90.04,12 L90.04,0.608 Z M100.456,7.184 L98.216,0.608 L99.944,0.608 L101.256,5.136 L101.288,5.136 L102.6,0.608 L104.328,0.608 L102.088,7.184 L102.088,12 L100.456,12 L100.456,7.184 Z" id="academy" fill="#913D88"></path>
        </g>
    </g>
</svg>